<svg width="206" height="60" viewBox="0 0 206 60" fill="none" xmlns="http://www.w3.org/2000/svg">
<g clip-path="url(#clip0_242_4)">
<path d="M0.301758 3.02734H8.24121L10.585 24.1211H12.7822C12.8213 23.9453 13.4658 16.9141 14.7158 3.02734H24.7646C26.0537 17.3633 26.7275 24.668 26.7861 24.9414H30.0967C31.5615 12.3633 32.3818 5.05859 32.5576 3.02734H40.4971L37.1865 25.293H36.5713V29.4238H30.5654V30.4785H35.3115V36.748H30.7705V42.2559H29.54V44.6582H24.4424V31.0938H21.1318V26.2012C21.1318 25.7715 20.6924 21.8164 19.8135 14.3359H19.667V14.3945L18.583 24.1211H19.1104V39.1504H14.2178V45.0098H7.94824V39.1504H5.5459V25.293H3.6123L0.301758 3.02734ZM3.87598 25.9082H4.28613L4.5791 26.8164H4.6377C4.77441 26.2109 4.8916 25.9082 4.98926 25.9082H5.25293V25.9961C4.97949 26.9531 4.80371 27.4316 4.72559 27.4316H4.37402C4.37402 27.2949 4.20801 26.7871 3.87598 25.9082ZM3.81738 27.9883H4.22754V29.0137C4.22754 29.0527 4.3252 29.1211 4.52051 29.2188C4.69629 29.1602 4.78418 29.0918 4.78418 29.0137V27.9883H5.19434V28.75C5.19434 29.1406 5.05762 29.3945 4.78418 29.5117H4.37402C4.00293 29.5117 3.81738 29.2578 3.81738 28.75V27.9883ZM3.81738 30.0391H4.84277C4.9209 30.0391 5.01855 30.1367 5.13574 30.332V30.5957L4.98926 30.8008C5.06738 30.957 5.13574 31.2109 5.19434 31.5625H4.78418C4.78418 31.4453 4.76465 31.2598 4.72559 31.0059H4.22754V31.5625H3.96387C3.86621 31.5625 3.81738 31.5137 3.81738 31.416V30.0391ZM4.22754 30.332V30.6836H4.6377C4.73535 30.6836 4.78418 30.6348 4.78418 30.5371C4.74512 30.4395 4.72559 30.3711 4.72559 30.332H4.22754ZM4.08105 32.1191H5.19434V32.4707H4.52051V32.6758H4.98926C5.08691 32.6953 5.13574 32.7441 5.13574 32.8223V33.0273H4.52051V33.6426H4.22754C4.12988 33.6426 4.08105 33.5938 4.08105 33.4961V32.1191ZM4.52051 34.1113C4.93066 34.209 5.13574 34.3945 5.13574 34.668L4.98926 34.7266H4.84277L4.5791 34.4629H4.37402C4.17871 34.541 4.08105 34.6973 4.08105 34.9316C4.08105 35.2637 4.22754 35.4297 4.52051 35.4297C4.69629 35.3516 4.78418 35.2832 4.78418 35.2246V35.166C4.5498 35.166 4.43262 35.1172 4.43262 35.0195V34.9316C4.45215 34.8535 4.50098 34.8145 4.5791 34.8145H5.13574V35.6934H5.04785C5.00879 35.6934 4.94043 35.6738 4.84277 35.6348L4.43262 35.6934H4.37402C3.96387 35.6348 3.75879 35.4297 3.75879 35.0781V34.8145C3.75879 34.4238 4.0127 34.1895 4.52051 34.1113ZM3.81738 36.25H4.22754V36.8066H4.78418V36.25H5.19434V37.627C5.19434 37.7246 5.14551 37.7734 5.04785 37.7734H4.78418V37.1582H4.22754V37.7734H3.96387C3.86621 37.7734 3.81738 37.7246 3.81738 37.627V36.25ZM30.9756 37.0703H31.3857C31.4834 37.4805 31.5322 37.7637 31.5322 37.9199H31.5908C31.7275 37.4707 31.7959 37.1875 31.7959 37.0703H32.0889C32.2061 37.0703 32.2939 37.373 32.3525 37.9785H32.4404C32.5186 37.373 32.6064 37.0703 32.7041 37.0703H32.9678C32.7529 38.0859 32.5967 38.5938 32.499 38.5938H32.2061L32.001 37.7734H31.9424C31.8447 38.2812 31.7959 38.5547 31.7959 38.5938H31.3857C31.3076 38.2031 31.1709 37.6953 30.9756 37.0703ZM31.0342 39.1504H31.3857C31.4834 39.1504 31.5811 39.2871 31.6787 39.5605C31.7568 39.5605 31.8447 39.4238 31.9424 39.1504H32.3525V39.209L31.9424 39.8535C31.9424 39.873 32.1084 40.1172 32.4404 40.5859V40.6738H32.0889C31.9717 40.6738 31.8545 40.5078 31.7373 40.1758C31.5029 40.5078 31.3662 40.6738 31.3271 40.6738H30.9756C30.9756 40.6348 31.1416 40.3809 31.4736 39.9121V39.8535L31.0342 39.209V39.1504ZM43.251 3.32031H63.7881V10.1465C63.7881 10.2441 63.7393 10.293 63.6416 10.293H51.4541V19.3164H62.3818V19.4043C62.3818 19.6582 62.3428 21.1328 62.2646 23.8281C62.2061 23.8281 62.1768 23.8477 62.1768 23.8867H62.6748V25.9961H53.2119V34.5508H50.6631V35.4004H53.2119V38.0078H63.9346V38.9746H63.085V44.1016H50.2529V45.0098H44.1592V30.0684H43.251V24.7949H36.5713V23.8867H43.251V3.32031ZM43.3096 23.8867V24.7949H46.7373V23.8867H43.3096ZM68.6807 3.4082H80.4873C85.7607 3.4082 89.1104 4.73633 90.5361 7.39258C91.3369 8.7793 91.7373 10.6738 91.7373 13.0762V15.9766C91.7373 18.7109 90.5557 20.918 88.1924 22.5977C88.9932 22.7344 90.0088 23.3496 91.2393 24.4434H92.1768C93.3291 25.6543 94.0811 26.8164 94.4326 27.9297C94.5303 28.3203 94.5791 28.5352 94.5791 28.5742H95.7217V29.2773H91.9424V28.5742H84.208V26.377H76.5908V38.4766H81.3662V37.627H84.208V29.2773H91.9424V36.6309H92.792V41.2305H90.2432V42.3145H92.792V44.2188H82.9775V45.0098H72.2549V44.2188H69.9111V37.832H73.1045V36.1328H69.9111C69.8525 32.8711 69.8232 30.4492 69.8232 28.8672V25.791H67.1279V25.0293H69.8232V23.3887H68.5635V3.55469C68.5635 3.45703 68.6025 3.4082 68.6807 3.4082ZM76.7373 10.4395V20.752H78.4951C80.585 20.752 81.9619 20.4004 82.626 19.6973C83.29 19.1309 83.6221 17.6074 83.6221 15.127V14.9805C83.6221 12.8711 83.29 11.5918 82.626 11.1426C82.1963 10.6738 80.6826 10.4395 78.085 10.4395H76.7373ZM69.9111 25.0293V25.791H73.749V25.0293H69.9111ZM80.2822 28.5742H84.208V29.2773H80.2822V28.5742ZM98.3877 3.05664H111.132C116.464 3.05664 120.136 4.86328 122.147 8.47656C123.827 11.3086 124.667 15.9863 124.667 22.5098H125.927V32.5293H113.534V31.416H117.401V22.5098H116.288V18.8477C116.288 14.7266 115.37 12.0996 113.534 10.9668C112.44 10.3418 110.702 10.0293 108.319 10.0293H106.62V22.3047H107.763V32.5293H99.3545V23.0957H98.3877V3.05664ZM116.493 29.4238H116.903V30.4785H117.138V30.8301H116.903V31.2695H116.493V30.8301H115.731V30.5664C116.239 29.8633 116.493 29.4824 116.493 29.4238ZM116.142 30.4785H116.493V30.0684C116.435 30.0684 116.317 30.2051 116.142 30.4785ZM108.173 30.4199H108.583C108.642 30.4199 108.788 30.5859 109.022 30.918C109.218 30.6836 109.315 30.5176 109.315 30.4199H109.784V30.4785C109.472 30.9277 109.315 31.2109 109.315 31.3281L109.872 32.2363H109.315C109.315 32.0801 109.198 31.8945 108.964 31.6797C108.788 32.0312 108.642 32.2168 108.524 32.2363H108.114C108.427 31.6699 108.632 31.3672 108.729 31.3281L108.173 30.4199ZM94.6377 32.5293H98.4463V33.877H107.763V36.6309H113.534V33.877H125.927V36.6309H117.401V44.1016H107.763V45.0098H98.5049C98.4268 45.0098 98.3877 44.9609 98.3877 44.8633V33.877H94.6377V32.5293ZM107.763 32.5293H113.534V33.877H107.763V32.5293ZM125.927 32.5293H134.188V33.877H125.927V32.5293ZM118.397 36.8945H118.896C119.228 37.8125 119.433 38.4473 119.511 38.7988H119.159C119.081 38.7988 119.013 38.6621 118.954 38.3887H118.397C118.3 38.3887 118.231 38.5254 118.192 38.7988H117.753V38.7402C117.753 38.7012 117.968 38.0859 118.397 36.8945ZM120.009 36.8945H120.448L120.8 38.0957H120.858C120.858 38.0176 120.976 37.6172 121.21 36.8945H121.649C121.649 37.0508 121.454 37.6855 121.063 38.7988H120.653C120.536 38.7988 120.321 38.1641 120.009 36.8945ZM122.353 36.8945H122.851V38.7988H122.353V36.8945ZM123.671 36.8945H124.462C125.067 36.8945 125.37 37.2461 125.37 37.9492C125.37 38.4375 125.067 38.7207 124.462 38.7988H123.671V36.8945ZM124.169 37.334V38.3887H124.608C124.667 38.3887 124.755 38.291 124.872 38.0957V37.5977C124.872 37.5391 124.784 37.4512 124.608 37.334H124.169ZM118.603 37.4805C118.603 37.5391 118.554 37.7246 118.456 38.0371H118.808C118.729 37.7246 118.69 37.5391 118.69 37.4805H118.603ZM130.38 3.32031H150.917V10.1465C150.917 10.2441 150.868 10.293 150.771 10.293H138.583V19.3164H149.511V19.4043C149.511 19.6582 149.472 21.1328 149.394 23.8281C149.335 23.8281 149.306 23.8477 149.306 23.8867H149.804V25.9961H140.341V34.5508H137.792V35.4004H140.341V38.0078H151.063V38.9746H150.214V44.1016H137.382V45.0098H131.288V30.0684H130.38V24.7949H123.7V23.8867H130.38V3.32031ZM130.438 23.8867V24.7949H133.866V23.8867H130.438ZM154.257 2.99805H163.163C163.222 3.48633 164.345 8.94531 166.532 19.375H168.378V20.9863H166.151V19.375H163.017V20.9863H166.151V28.5156H167.147V32.4121H169.608V26.6699H170.546V20.9863H172.304V19.375H170.927C173.114 8.94531 174.237 3.48633 174.296 2.99805H183.202C179.979 17.0215 178.368 24.1699 178.368 24.4434V31.7383H175.907V33.1738H177.753V37.4805H174.442V45.0098H164.013C163.915 45.0098 163.632 43.9355 163.163 41.7871H165.858V40.0293H162.87C162.733 40.0293 162.45 38.8965 162.021 36.6309C161.806 35.9473 159.218 24.7363 154.257 2.99805ZM173.358 47.8516H206.405V49.9902H199.022V51.8066H173.358V47.8516Z" fill="white"/>
</g>
<defs>
<clipPath id="clip0_242_4">
<rect width="206" height="60" fill="white"/>
</clipPath>
</defs>
</svg>
